<?xml version="1.0" ?><svg height="126.44433" id="svg8" version="1.1" viewBox="0 0 32.660311 33.455061" width="123.44054" xmlns="http://www.w3.org/2000/svg" xmlns:cc="http://creativecommons.org/ns#" xmlns:dc="http://purl.org/dc/elements/1.1/" xmlns:inkscape="http://www.inkscape.org/namespaces/inkscape" xmlns:rdf="http://www.w3.org/1999/02/22-rdf-syntax-ns#" xmlns:sodipodi="http://sodipodi.sourceforge.net/DTD/sodipodi-0.dtd" xmlns:svg="http://www.w3.org/2000/svg"><defs id="defs2"/><g id="layer1" transform="translate(-90.737098,-134.39746)"><path d="m 109.56687,135.80408 c -0.56328,-0.004 1.15266,2.77147 2.25405,3.57265 0.95741,0.69645 2.05057,0.9382 2.60239,0.5949 -0.34163,0.66382 -0.59199,1.4292 -0.75415,1.99565 -0.20804,-0.0324 -0.41581,-0.0529 -0.62293,-0.0494 -2.17674,0.0377 -4.35763,1.74323 -6.0712,4.10788 a 10.372158,10.672936 0 0 0 -4.47119,-1.05749 10.372158,10.672936 0 0 0 -10.372165,10.67295 10.372158,10.672936 0 0 0 10.372165,10.67295 10.372158,10.672936 0 0 0 6.17609,-2.11279 c 1.24428,0.68213 2.64975,1.06886 4.13969,1.06886 5.07174,0 9.18321,-4.45381 9.18321,-9.94734 0,-5.10408 -4.00452,-12.35555 -8.03536,-13.29873 l 2.69514,-3.90347 -0.096,-0.21041 c 0,0 0.0857,0.21086 -1.14679,0.85629 -0.23648,0.12383 -0.45434,0.34811 -0.65193,0.62798 0.0673,-0.70711 -0.5695,-1.79634 -1.54202,-2.50379 -1.13692,-0.82702 -2.53929,-0.79755 -3.59742,-1.07699 -0.023,-0.006 -0.0435,-0.009 -0.0618,-0.0102 z" id="circle938" style="opacity:1;fill:none;fill-opacity:1;stroke:#f3e9e9;stroke-width:1.65522492;stroke-linecap:round;stroke-linejoin:round;stroke-miterlimit:4;stroke-dasharray:none;stroke-dashoffset:0;stroke-opacity:1;paint-order:stroke markers fill"/><circle cx="102.70572" cy="155.46942" id="path874" r="10.046865" style="opacity:1;fill:#8abf16;fill-opacity:1;stroke:none;stroke-width:0.74326074;stroke-linecap:round;stroke-linejoin:round;stroke-miterlimit:4;stroke-dasharray:none;stroke-dashoffset:0;stroke-opacity:1;paint-order:stroke markers fill"/><circle cx="102.70572" cy="155.46942" id="circle876" r="9.254797" style="opacity:1;fill:#dfe867;fill-opacity:1;stroke:none;stroke-width:0.68466425;stroke-linecap:round;stroke-linejoin:round;stroke-miterlimit:4;stroke-dasharray:none;stroke-dashoffset:0;stroke-opacity:1;paint-order:stroke markers fill"/><circle cx="102.70572" cy="155.46942" id="circle878" r="8.3680115" style="opacity:1;fill:#e05352;fill-opacity:1;stroke:none;stroke-width:0.61906034;stroke-linecap:round;stroke-linejoin:round;stroke-miterlimit:4;stroke-dasharray:none;stroke-dashoffset:0;stroke-opacity:1;paint-order:stroke markers fill"/><rect height="10.92389" id="rect894" rx="2.1223323" ry="1.2777132" style="opacity:1;fill:#cc3a3a;fill-opacity:1;stroke:none;stroke-width:0.55404383;stroke-linecap:round;stroke-linejoin:round;stroke-miterlimit:4;stroke-dasharray:none;stroke-dashoffset:0;stroke-opacity:1;paint-order:stroke markers fill" width="5.134027" x="100.01744" y="149.6281"/><rect height="10.92389" id="rect896" rx="2.1223323" ry="1.2777132" style="opacity:1;fill:#cc3a3a;fill-opacity:1;stroke:none;stroke-width:0.55404383;stroke-linecap:round;stroke-linejoin:round;stroke-miterlimit:4;stroke-dasharray:none;stroke-dashoffset:0;stroke-opacity:1;paint-order:stroke markers fill" transform="rotate(90)" width="5.134027" x="152.52303" y="-108.0464"/><ellipse cx="102.64057" cy="150.33873" id="ellipse900" rx="0.49523073" ry="0.49511248" style="opacity:1;fill:#e3a20f;fill-opacity:1;stroke:none;stroke-width:0.4599399;stroke-linecap:round;stroke-linejoin:round;stroke-miterlimit:4;stroke-dasharray:none;stroke-dashoffset:0;stroke-opacity:1;paint-order:stroke markers fill"/><ellipse cx="104.07618" cy="150.56976" id="ellipse902" rx="0.49523073" ry="0.49511248" style="opacity:1;fill:#e3a20f;fill-opacity:1;stroke:none;stroke-width:0.4599399;stroke-linecap:round;stroke-linejoin:round;stroke-miterlimit:4;stroke-dasharray:none;stroke-dashoffset:0;stroke-opacity:1;paint-order:stroke markers fill"/><ellipse cx="101.07293" cy="150.53677" id="ellipse904" rx="0.49523073" ry="0.49511248" style="opacity:1;fill:#e3a20f;fill-opacity:1;stroke:none;stroke-width:0.4599399;stroke-linecap:round;stroke-linejoin:round;stroke-miterlimit:4;stroke-dasharray:none;stroke-dashoffset:0;stroke-opacity:1;paint-order:stroke markers fill"/><ellipse cx="104.40622" cy="152.00539" id="ellipse906" rx="0.49523073" ry="0.49511248" style="opacity:1;fill:#e3a20f;fill-opacity:1;stroke:none;stroke-width:0.4599399;stroke-linecap:round;stroke-linejoin:round;stroke-miterlimit:4;stroke-dasharray:none;stroke-dashoffset:0;stroke-opacity:1;paint-order:stroke markers fill"/><ellipse cx="100.72639" cy="151.90637" id="ellipse908" rx="0.49523073" ry="0.49511248" style="opacity:1;fill:#e3a20f;fill-opacity:1;stroke:none;stroke-width:0.4599399;stroke-linecap:round;stroke-linejoin:round;stroke-miterlimit:4;stroke-dasharray:none;stroke-dashoffset:0;stroke-opacity:1;paint-order:stroke markers fill"/><ellipse cx="105.4128" cy="153.19348" id="ellipse910" rx="0.49523073" ry="0.49511248" style="opacity:1;fill:#e3a20f;fill-opacity:1;stroke:none;stroke-width:0.4599399;stroke-linecap:round;stroke-linejoin:round;stroke-miterlimit:4;stroke-dasharray:none;stroke-dashoffset:0;stroke-opacity:1;paint-order:stroke markers fill"/><ellipse cx="106.84843" cy="153.19348" id="ellipse912" rx="0.49523073" ry="0.49511248" style="opacity:1;fill:#e3a20f;fill-opacity:1;stroke:none;stroke-width:0.4599399;stroke-linecap:round;stroke-linejoin:round;stroke-miterlimit:4;stroke-dasharray:none;stroke-dashoffset:0;stroke-opacity:1;paint-order:stroke markers fill"/><ellipse cx="107.35996" cy="154.69511" id="ellipse914" rx="0.49523073" ry="0.49511248" style="opacity:1;fill:#e3a20f;fill-opacity:1;stroke:none;stroke-width:0.4599399;stroke-linecap:round;stroke-linejoin:round;stroke-miterlimit:4;stroke-dasharray:none;stroke-dashoffset:0;stroke-opacity:1;paint-order:stroke markers fill"/><ellipse cx="107.14545" cy="156.26274" id="ellipse916" rx="0.49523073" ry="0.49511248" style="opacity:1;fill:#e3a20f;fill-opacity:1;stroke:none;stroke-width:0.4599399;stroke-linecap:round;stroke-linejoin:round;stroke-miterlimit:4;stroke-dasharray:none;stroke-dashoffset:0;stroke-opacity:1;paint-order:stroke markers fill"/><ellipse cx="105.74284" cy="156.77429" id="ellipse918" rx="0.49523073" ry="0.49511248" style="opacity:1;fill:#e3a20f;fill-opacity:1;stroke:none;stroke-width:0.4599399;stroke-linecap:round;stroke-linejoin:round;stroke-miterlimit:4;stroke-dasharray:none;stroke-dashoffset:0;stroke-opacity:1;paint-order:stroke markers fill"/><ellipse cx="104.40621" cy="157.86339" id="ellipse920" rx="0.49523073" ry="0.49511248" style="opacity:1;fill:#e3a20f;fill-opacity:1;stroke:none;stroke-width:0.4599399;stroke-linecap:round;stroke-linejoin:round;stroke-miterlimit:4;stroke-dasharray:none;stroke-dashoffset:0;stroke-opacity:1;paint-order:stroke markers fill"/><ellipse cx="104.20818" cy="159.31551" id="ellipse922" rx="0.49523073" ry="0.49511248" style="opacity:1;fill:#e3a20f;fill-opacity:1;stroke:none;stroke-width:0.4599399;stroke-linecap:round;stroke-linejoin:round;stroke-miterlimit:4;stroke-dasharray:none;stroke-dashoffset:0;stroke-opacity:1;paint-order:stroke markers fill"/><ellipse cx="102.67357" cy="159.72801" id="ellipse924" rx="0.49523073" ry="0.49511248" style="opacity:1;fill:#e3a20f;fill-opacity:1;stroke:none;stroke-width:0.4599399;stroke-linecap:round;stroke-linejoin:round;stroke-miterlimit:4;stroke-dasharray:none;stroke-dashoffset:0;stroke-opacity:1;paint-order:stroke markers fill"/><ellipse cx="100.90793" cy="159.56302" id="ellipse926" rx="0.49523073" ry="0.49511248" style="opacity:1;fill:#e3a20f;fill-opacity:1;stroke:none;stroke-width:0.4599399;stroke-linecap:round;stroke-linejoin:round;stroke-miterlimit:4;stroke-dasharray:none;stroke-dashoffset:0;stroke-opacity:1;paint-order:stroke markers fill"/><ellipse cx="100.90793" cy="157.86339" id="ellipse928" rx="0.49523073" ry="0.49511248" style="opacity:1;fill:#e3a20f;fill-opacity:1;stroke:none;stroke-width:0.4599399;stroke-linecap:round;stroke-linejoin:round;stroke-miterlimit:4;stroke-dasharray:none;stroke-dashoffset:0;stroke-opacity:1;paint-order:stroke markers fill"/><ellipse cx="100.21486" cy="156.47725" id="ellipse930" rx="0.49523073" ry="0.49511248" style="opacity:1;fill:#e3a20f;fill-opacity:1;stroke:none;stroke-width:0.4599399;stroke-linecap:round;stroke-linejoin:round;stroke-miterlimit:4;stroke-dasharray:none;stroke-dashoffset:0;stroke-opacity:1;paint-order:stroke markers fill"/><ellipse cx="98.454872" cy="156.57626" id="ellipse932" rx="0.49523073" ry="0.49511248" style="opacity:1;fill:#e3a20f;fill-opacity:1;stroke:none;stroke-width:0.4599399;stroke-linecap:round;stroke-linejoin:round;stroke-miterlimit:4;stroke-dasharray:none;stroke-dashoffset:0;stroke-opacity:1;paint-order:stroke markers fill"/><ellipse cx="97.842659" cy="154.88747" id="ellipse934" rx="0.49523073" ry="0.49511248" style="opacity:1;fill:#e3a20f;fill-opacity:1;stroke:none;stroke-width:0.4599399;stroke-linecap:round;stroke-linejoin:round;stroke-miterlimit:4;stroke-dasharray:none;stroke-dashoffset:0;stroke-opacity:1;paint-order:stroke markers fill"/><ellipse cx="98.482216" cy="153.276" id="ellipse936" rx="0.49523073" ry="0.49511248" style="opacity:1;fill:#e3a20f;fill-opacity:1;stroke:none;stroke-width:0.4599399;stroke-linecap:round;stroke-linejoin:round;stroke-miterlimit:4;stroke-dasharray:none;stroke-dashoffset:0;stroke-opacity:1;paint-order:stroke markers fill"/><ellipse cx="100.01684" cy="153.24298" id="path898" rx="0.49523073" ry="0.49511248" style="opacity:1;fill:#e3a20f;fill-opacity:1;stroke:none;stroke-width:0.4599399;stroke-linecap:round;stroke-linejoin:round;stroke-miterlimit:4;stroke-dasharray:none;stroke-dashoffset:0;stroke-opacity:1;paint-order:stroke markers fill"/><path d="m 113.51074,137.10938 c 1.10126,0.77852 1.76162,2.04979 1.40277,2.66122 -0.37273,0.63509 -1.66243,0.45764 -2.76369,-0.32088 -1.10127,-0.77851 -2.83695,-3.53741 -2.12368,-3.35433 1.02492,0.26307 2.38333,0.23547 3.4846,1.01399 z" id="path871" style="opacity:1;fill:#73990c;fill-opacity:1;stroke:none;stroke-width:0.41221076;stroke-linecap:round;stroke-linejoin:round;stroke-miterlimit:4;stroke-dasharray:none;stroke-dashoffset:0;stroke-opacity:1;paint-order:stroke markers fill"/><path d="m 121.59353,155.17006 c 0,5.17126 -3.98251,9.36342 -8.8952,9.36342 -4.91268,0 -8.89519,-4.19216 -8.89519,-9.36342 0,-5.17127 4.56743,-12.5423 9.11425,-12.61878 4.18237,-0.0704 8.67614,7.44751 8.67614,12.61878 z" id="path862" style="opacity:1;fill:#89c10a;fill-opacity:1;stroke:none;stroke-width:1.67649937;stroke-linecap:round;stroke-linejoin:round;stroke-miterlimit:4;stroke-dasharray:none;stroke-dashoffset:0;stroke-opacity:1;paint-order:stroke markers fill"/><circle cx="109.2297" cy="147.75058" id="path865" r="1.8118027" style="opacity:1;fill:#b8e33d;fill-opacity:1;stroke:none;stroke-width:1.87308121;stroke-linecap:round;stroke-linejoin:round;stroke-miterlimit:4;stroke-dasharray:none;stroke-dashoffset:0;stroke-opacity:1;paint-order:stroke markers fill"/><ellipse cx="113.32469" cy="143.26056" id="path867" rx="1.023086" ry="0.36303052" style="opacity:1;fill:#62a102;fill-opacity:1;stroke:none;stroke-width:1.58055997;stroke-linecap:round;stroke-linejoin:round;stroke-miterlimit:4;stroke-dasharray:none;stroke-dashoffset:0;stroke-opacity:1;paint-order:stroke markers fill"/><path d="m 113.32047,143.3405 c 0,0 0.70228,-3.14831 1.89613,-3.75588 1.19384,-0.60758 1.1112,-0.80591 1.1112,-0.80591 l 0.0928,0.19805" id="path869" style="fill:none;fill-opacity:1;stroke:#a9620f;stroke-width:0.64210248;stroke-linecap:butt;stroke-linejoin:miter;stroke-miterlimit:4;stroke-dasharray:none;stroke-opacity:1"/></g></svg>